<?xml version="1.0" encoding="utf-8"?>
<svg fill="#000000" width="800px" height="800px" viewBox="0 0 24 24" id="cookie" data-name="Flat Color" xmlns="http://www.w3.org/2000/svg" class="icon flat-color">
  <path id="primary" d="M21,11a2,2,0,0,1-1.92-1.48.94.94,0,0,0-.52-.63,1,1,0,0,0-.82,0A2,2,0,0,1,15,7a1.92,1.92,0,0,1,.15-.74,1,1,0,0,0,0-.82.94.94,0,0,0-.63-.52A2,2,0,0,1,13,3a1,1,0,0,0-1-1A10,10,0,1,0,22,12,1,1,0,0,0,21,11Z" style="fill: rgb(10, 43, 64);"/>
  <path id="secondary" d="M10.5,9.5A1.5,1.5,0,1,1,9,8,1.5,1.5,0,0,1,10.5,9.5Zm-1,4A1.5,1.5,0,1,0,11,15,1.5,1.5,0,0,0,9.5,13.5Zm5-1A1.5,1.5,0,1,0,16,14,1.5,1.5,0,0,0,14.5,12.5Z" style="fill: rgb(59, 157, 220);"/>
</svg>