<?xml version="1.0" encoding="utf-8"?>
<svg width="34" height="34" viewBox="0 0 34 34" fill="none" xmlns="http://www.w3.org/2000/svg">
  <g>
    <path d="M5.66658 2.8335L2.83325 2.8335M2.83333 2.8335L0 2.8335M2.83325 2.83336L2.83325 0M2.83325 2.8335L2.83325 5.6668" fill="none" stroke-width="3" stroke="#0A2B40" stroke-linecap="round" transform="translate(20.542 9.917)" />
    <path d="M10.925 24.2678C10.925 24.2678 11.5946 23.4429 11.5946 23.4429C11.5946 23.4429 10.925 24.2678 10.925 24.2678ZM15.2292 4.71143C15.2292 4.71143 14.4531 5.43708 14.4531 5.43708C14.654 5.65196 14.9349 5.77393 15.2292 5.77393C15.5234 5.77393 15.8043 5.65196 16.0052 5.43708C16.0052 5.43708 15.2292 4.71143 15.2292 4.71143ZM19.5334 24.2678C19.5334 24.2678 20.203 25.0927 20.203 25.0927C20.203 25.0927 19.5334 24.2678 19.5334 24.2678ZM15.2292 26.5647C15.2292 26.5647 15.2292 25.5022 15.2292 25.5022C15.2292 25.5022 15.2292 26.5647 15.2292 26.5647ZM1.9856 16.1978C2.28927 16.7 2.9425 16.8608 3.44461 16.5572C3.94672 16.2534 4.10758 15.6002 3.8039 15.0981C3.8039 15.0981 1.9856 16.1978 1.9856 16.1978ZM7.49047 19.7234C7.0811 19.3029 6.40841 19.294 5.988 19.7034C5.56759 20.1127 5.55865 20.7855 5.96804 21.2058C5.96804 21.2058 7.49047 19.7234 7.49047 19.7234ZM2.125 10.0146C2.125 5.89974 3.92085 3.356 6.14269 2.486C8.35964 1.61792 11.4614 2.2375 14.4531 5.43714C14.4531 5.43714 16.0052 3.98582 16.0052 3.98582C12.6222 0.367585 8.64059 -0.774206 5.36789 0.507283C2.1001 1.78684 0 5.30361 0 10.0146C0 10.0146 2.125 10.0146 2.125 10.0146ZM20.203 25.093C22.3173 23.3773 24.8504 21.0779 26.8639 18.5097C28.857 15.9677 30.4584 13.015 30.4584 10.0146C30.4584 10.0146 28.3334 10.0146 28.3334 10.0146C28.3334 12.2975 27.0878 14.7802 25.1917 17.1985C23.3162 19.5906 20.918 21.7761 18.864 23.443C18.864 23.443 20.203 25.093 20.203 25.093ZM30.4583 10.0146C30.4583 5.30359 28.3583 1.78683 25.0905 0.507283C21.8178 -0.774206 17.8361 0.367585 14.4531 3.98582C14.4531 3.98582 16.0052 5.43714 16.0052 5.43714C18.9969 2.2375 22.0987 1.61791 24.3157 2.486C26.5374 3.35599 28.3333 5.89971 28.3333 10.0146C28.3333 10.0146 30.4583 10.0146 30.4583 10.0146ZM10.2554 25.0929C12.0566 26.5546 13.3057 27.6273 15.2291 27.6273C15.2291 27.6273 15.2291 25.5023 15.2291 25.5023C14.205 25.5023 13.5672 25.0437 11.5944 23.4429C11.5944 23.4429 10.2554 25.0929 10.2554 25.0929ZM18.864 23.4429C16.8911 25.0437 16.2534 25.5023 15.2292 25.5023C15.2292 25.5023 15.2292 27.6273 15.2292 27.6273C17.1527 27.6273 18.4017 26.5546 20.203 25.0929C20.203 25.0929 18.864 23.4429 18.864 23.4429ZM3.80389 15.0982C2.74566 13.3485 2.125 11.6261 2.125 10.0146C2.125 10.0146 0 10.0146 0 10.0146C0 12.1569 0.816652 14.2652 1.98559 16.1978C1.98559 16.1978 3.80389 15.0982 3.80389 15.0982ZM11.5945 23.443C10.2954 22.3887 8.85272 21.1223 7.49045 19.7234C7.49045 19.7234 5.96802 21.2058 5.96802 21.2058C7.40283 22.6793 8.91084 24.0019 10.2555 25.093C10.2555 25.093 11.5945 23.443 11.5945 23.443Z" fill="#0A2B40" transform="translate(1.771 3.185)" />
  </g>
</svg>