<?xml version="1.0" encoding="utf-8"?>
<svg width="29" height="29" viewBox="0 0 29 29" fill="none" xmlns="http://www.w3.org/2000/svg">
  <g>
    <path d="M0.353914 2.06276C-0.117977 1.59086 -0.117965 0.825796 0.353914 0.353918C0.825791 -0.117972 1.59087 -0.117972 2.06275 0.353918C2.06275 0.353918 5.18947 3.48066 5.18947 3.48066C5.18947 3.48066 8.31301 0.357083 8.31301 0.357083C8.78499 -0.114795 9.54998 -0.114795 10.0218 0.357083C10.4938 0.828975 10.4938 1.59404 10.0218 2.06593C10.0218 2.06593 6.89829 5.18949 6.89829 5.18949C6.89829 5.18949 10.0206 8.3117 10.0206 8.3117C10.4925 8.78367 10.4925 9.54867 10.0206 10.0205C9.54865 10.4925 8.78366 10.4925 8.31168 10.0205C8.31168 10.0205 5.18947 6.89831 5.18947 6.89831C5.18947 6.89831 2.06625 10.0216 2.06625 10.0216C1.59438 10.4935 0.829295 10.4935 0.357417 10.0216C-0.114461 9.54964 -0.114461 8.78464 0.357417 8.31266C0.357417 8.31266 3.48065 5.18949 3.48065 5.18949C3.48065 5.18949 0.353914 2.06276 0.353914 2.06276Z" fill="#FF3A3A" fill-rule="evenodd" transform="translate(9.317 9.318)" />
    <path d="M26.5833 13.2917C26.5833 20.6324 20.6324 26.5833 13.2917 26.5833C5.95088 26.5833 0 20.6324 0 13.2917C0 5.95088 5.95088 0 13.2917 0C20.6324 0 26.5833 5.95088 26.5833 13.2917ZM2.42474 13.2917C2.42474 19.2932 7.28995 24.1585 13.2915 24.1585C19.293 24.1585 24.1583 19.2932 24.1583 13.2917C24.1583 7.29014 19.293 2.42493 13.2915 2.42493C7.28995 2.42493 2.42474 7.29014 2.42474 13.2917Z" fill="#FF3A3A" fill-rule="evenodd" transform="translate(1.208 1.208)" />
  </g>
</svg>