<?xml version="1.0" encoding="utf-8"?>
<svg width="30" height="30" viewBox="0 0 30 30" fill="none" xmlns="http://www.w3.org/2000/svg">
  <g>
    <path d="M23.75 0C25.8211 0 27.5 1.67894 27.5 3.75C27.5 3.75 27.5 23.75 27.5 23.75C27.5 25.8211 25.8211 27.5 23.75 27.5C23.75 27.5 3.75 27.5 3.75 27.5C1.67894 27.5 0 25.8211 0 23.75C0 23.75 0 3.75 0 3.75C0 1.67894 1.67894 0 3.75 0C3.75 0 23.75 0 23.75 0ZM23.75 2.5C24.4404 2.5 25 3.05965 25 3.75C25 3.75 25 23.75 25 23.75C25 24.4404 24.4404 25 23.75 25C23.75 25 17.5 25 17.5 25L17.5 16.2499C17.5 16.2499 20.0953 16.2499 20.0953 16.2499C20.6332 16.2499 21.1109 15.9056 21.2811 15.3951C21.2811 15.3951 21.8349 13.7339 21.8349 13.7339C22.0373 13.1267 21.5854 12.4999 20.9455 12.4999C20.9455 12.4999 17.5 12.4999 17.5 12.4999C17.5 12.4999 17.5 9.9999 17.5 9.9999C17.5 9.3749 18.125 8.7499 18.75 8.7499C18.75 8.7499 21.25 8.7499 21.25 8.7499C21.9404 8.7499 22.5 8.19025 22.5 7.4999C22.5 7.4999 22.5 6.64241 22.5 6.64241C22.5 6.23864 22.2421 5.87663 21.8516 5.77359C20.2131 5.34119 18.75 5.34119 18.75 5.34119C15.625 5.34119 13.75 7.4999 13.75 9.3749C13.75 9.3749 13.75 12.4999 13.75 12.4999C13.75 12.4999 11.25 12.4999 11.25 12.4999C10.5596 12.4999 10 13.0595 10 13.7499C10 13.7499 10 14.9999 10 14.9999C10 15.6903 10.5596 16.2499 11.25 16.2499C11.25 16.2499 13.75 16.2499 13.75 16.2499L13.75 25C13.75 25 3.75 25 3.75 25C3.05965 25 2.5 24.4404 2.5 23.75C2.5 23.75 2.5 3.75 2.5 3.75C2.5 3.05965 3.05965 2.5 3.75 2.5C3.75 2.5 23.75 2.5 23.75 2.5Z" fill="#FCFCFC" fill-rule="evenodd" transform="translate(1.25 1.25)" />
  </g>
</svg>