<?xml version="1.0" encoding="utf-8"?>
<svg width="30" height="30" viewBox="0 0 30 30" fill="none" xmlns="http://www.w3.org/2000/svg">
  <g>
    <path d="M1.44792 2.78193C1.53405 1.38052 1.89799 0.77111 2.94167 0.281734C4.06465 -0.244989 5.83582 0.000131934 7.91994 0.970882C8.81762 1.3892 8.90903 1.39772 10.4822 1.21219C12.5733 0.965495 15.2654 0.966366 17.1954 1.21445C18.655 1.40206 18.7508 1.39268 19.6507 0.973495C22.609 -0.404464 24.9446 -0.314304 25.7903 1.21045C26.2124 1.97153 26.2908 3.94638 25.9635 5.57519C25.782 6.47819 25.8012 6.59094 26.2384 7.1835C29.3145 11.353 27.0981 18.1115 21.8271 20.6337C21.4238 20.8267 21.0839 20.9462 20.8069 21.0435C19.9563 21.3422 19.698 21.433 20.0107 22.8081C20.1612 23.4696 20.3426 25.1141 20.4139 26.4629C20.5427 28.9009 20.5408 28.9179 20.0759 29.4153C19.4432 30.0918 18.5312 30.1033 17.9132 29.4423C17.5102 29.0113 17.4708 28.8078 17.4708 27.1449C17.4708 24.6875 17.178 23.0541 16.4861 21.6544C15.6633 19.9888 16.2732 19.3678 18.1549 18.9955C20.7703 18.478 22.8131 16.9933 23.9517 14.7824C25.0342 12.6807 25.1973 9.77642 23.2402 8.01007C22.6837 7.4017 22.6449 6.85065 23.0423 5.18901C23.1908 4.56796 23.3154 3.76675 23.3191 3.40836C23.3247 2.84238 23.2686 2.75691 22.8907 2.75691C22.6516 2.75691 21.7378 3.07691 20.8604 3.46795C20.8604 3.46795 19.46 4.09227 19.46 4.09227C19.3327 4.14902 19.1902 4.17084 19.0497 4.15601C15.4889 3.78006 12.1054 3.77425 8.52707 4.15748C8.38603 4.17258 8.24296 4.15076 8.1152 4.09373C8.1152 4.09373 6.71555 3.469 6.71555 3.469C5.83808 3.07725 4.92436 2.75691 4.68527 2.75691C4.13245 2.75691 4.12414 3.13232 4.62803 5.36273C4.93583 6.7249 5.14296 7.02842 4.25314 8.11761C2.91938 9.75023 2.58622 11.7776 3.30145 13.9076C4.2029 16.5918 6.41035 18.4052 9.51377 19.0102C11.3846 19.375 11.8736 19.8509 11.1592 21.8241C10.5969 23.3769 10.2413 23.7772 9.42406 23.7772C8.32449 23.7772 7.6357 22.901 8.01475 21.9842C8.18171 21.5802 8.13204 21.537 7.10198 21.1915C3.95756 20.137 1.55255 17.7734 0.452985 14.6568C-0.396903 12.2482 -0.0229497 9.11302 1.34047 7.21807C1.80469 6.57287 1.81188 6.51815 1.59524 5.28299C1.47267 4.58377 1.40638 3.4584 1.44792 2.78193Z" fill="#FCFCFC" fill-rule="evenodd" transform="translate(2.36 0)" />
    <path d="M2.70988 0.605934C2.25677 -0.0192032 1.33846 -0.188175 0.658781 0.228676C-0.0208805 0.645388 -0.204551 1.49011 0.248561 2.11525C0.583082 2.57685 0.983274 2.95602 1.32312 3.26852C1.38577 3.3262 1.44665 3.38185 1.5061 3.43613C1.79077 3.69625 2.04212 3.9259 2.29457 4.19854C2.85294 4.80137 3.40997 5.6133 3.72655 7.06928C3.86756 7.71782 4.37436 8.06719 4.65518 8.21983C4.95972 8.38527 5.29247 8.48281 5.56629 8.54635C6.12643 8.67627 6.8064 8.74375 7.45172 8.78307C8.16013 8.82633 8.92772 8.84034 9.61411 8.84415C9.61462 9.595 10.2766 10.2037 11.0932 10.2037C11.91 10.2037 12.5722 9.59459 12.5722 8.8432C12.5722 8.8432 12.5722 7.48273 12.5722 7.48273C12.5722 6.73134 11.91 6.12225 11.0932 6.12225C10.9537 6.12225 10.8029 6.12266 10.6431 6.1232C9.7751 6.12565 8.64368 6.12878 7.64723 6.06811C7.16673 6.03886 6.77173 5.99736 6.48207 5.94662C6.03601 4.33595 5.31539 3.2643 4.54644 2.43401C4.20652 2.06709 3.85453 1.74601 3.56823 1.4848C3.51463 1.43596 3.46333 1.38916 3.41483 1.34454C3.08448 1.04074 2.86839 0.824697 2.70988 0.605934Z" fill="#FCFCFC" fill-rule="evenodd" transform="translate(0 19.796)" />
  </g>
</svg>