<?xml version="1.0" encoding="utf-8"?>
<svg width="30" height="30" viewBox="0 0 30 30" fill="none" xmlns="http://www.w3.org/2000/svg">
  <g>
    <g transform="translate(1.25 1.25)">
      <path d="M7.5 15C11.6421 15 15 11.6421 15 7.5C15 3.35786 11.6421 0 7.5 0C3.35786 0 0 3.35786 0 7.5C0 11.6421 3.35786 15 7.5 15ZM7.5 12.5C10.2614 12.5 12.5 10.2614 12.5 7.5C12.5 4.73857 10.2614 2.5 7.5 2.5C4.73857 2.5 2.5 4.73857 2.5 7.5C2.5 10.2614 4.73857 12.5 7.5 12.5Z" fill="#FCFCFC" fill-rule="evenodd" transform="translate(6.25 6.25)" />
      <path d="M1.25 0C0.559626 0 0 0.55965 0 1.25C0 1.94035 0.559626 2.5 1.25 2.5C1.94037 2.5 2.5 1.94035 2.5 1.25C2.5 0.55965 1.94037 0 1.25 0Z" fill="#FCFCFC" fill-rule="evenodd" transform="translate(20 5)" />
      <path d="M0.81745 4.09508C0 5.69941 0 7.79961 0 12C0 12 0 15.5 0 15.5C0 19.7004 0 21.8006 0.81745 23.4049C1.5365 24.8161 2.68385 25.9635 4.09508 26.6825C5.69941 27.5 7.79961 27.5 12 27.5C12 27.5 15.5 27.5 15.5 27.5C19.7004 27.5 21.8006 27.5 23.4049 26.6825C24.8161 25.9635 25.9635 24.8161 26.6825 23.4049C27.5 21.8006 27.5 19.7004 27.5 15.5C27.5 15.5 27.5 12 27.5 12C27.5 7.79961 27.5 5.69941 26.6825 4.09508C25.9635 2.68385 24.8161 1.5365 23.4049 0.81745C21.8006 0 19.7004 0 15.5 0C15.5 0 12 0 12 0C7.79961 0 5.69941 0 4.09508 0.81745C2.68385 1.5365 1.5365 2.68385 0.81745 4.09508ZM12 2.5C9.85855 2.5 8.40281 2.50195 7.2776 2.59387C6.18155 2.68342 5.62105 2.84574 5.23005 3.04496C4.28924 3.52434 3.52434 4.28924 3.04496 5.23005C2.84574 5.62105 2.68342 6.18155 2.59387 7.2776C2.50195 8.40281 2.5 9.85855 2.5 12C2.5 12 2.5 15.5 2.5 15.5C2.5 17.6415 2.50195 19.0971 2.59387 20.2224C2.68342 21.3185 2.84574 21.879 3.04496 22.27C3.52434 23.2107 4.28924 23.9756 5.23005 24.455C5.62105 24.6542 6.18155 24.8166 7.2776 24.9061C8.40281 24.998 9.85855 25 12 25C12 25 15.5 25 15.5 25C17.6415 25 19.0971 24.998 20.2224 24.9061C21.3185 24.8166 21.879 24.6542 22.27 24.455C23.2107 23.9756 23.9756 23.2107 24.455 22.27C24.6542 21.879 24.8166 21.3185 24.9061 20.2224C24.998 19.0971 25 17.6415 25 15.5C25 15.5 25 12 25 12C25 9.85855 24.998 8.40281 24.9061 7.2776C24.8166 6.18155 24.6542 5.62105 24.455 5.23005C23.9756 4.28924 23.2107 3.52434 22.27 3.04496C21.879 2.84574 21.3185 2.68342 20.2224 2.59387C19.0971 2.50195 17.6415 2.5 15.5 2.5C15.5 2.5 12 2.5 12 2.5Z" fill="#FCFCFC" fill-rule="evenodd" />
    </g>
  </g>
</svg>