<?xml version="1.0" encoding="utf-8"?>
<svg width="30" height="30" viewBox="0 0 30 30" fill="none" xmlns="http://www.w3.org/2000/svg">
  <g>
    <path d="M2.04545 4.09091C3.17513 4.09091 4.09091 3.17513 4.09091 2.04545C4.09091 0.915777 3.17513 0 2.04545 0C0.915777 0 0 0.915777 0 2.04545C0 3.17513 0.915777 4.09091 2.04545 4.09091Z" fill="#FCFCFC" fill-rule="evenodd" transform="translate(5.455 5.455)" />
    <path d="M0 1.36364C0 0.610527 0.610527 0 1.36364 0C1.36364 0 2.72727 0 2.72727 0C3.48038 0 4.09091 0.610514 4.09091 1.36364C4.09091 1.36364 4.09091 12.2727 4.09091 12.2727C4.09091 13.0259 3.48038 13.6364 2.72727 13.6364C2.72727 13.6364 1.36364 13.6364 1.36364 13.6364C0.610527 13.6364 0 13.0259 0 12.2727C0 12.2727 0 1.36364 0 1.36364Z" fill="#FCFCFC" fill-rule="evenodd" transform="translate(5.455 10.909)" />
    <path d="M2.72727 13.6364C3.48041 13.6364 4.09091 13.0259 4.09091 12.2727C4.09091 12.2727 4.09091 6.13636 4.09091 6.13636C4.09091 4.09091 8.18182 2.72727 8.18182 5.45455C8.18182 5.45455 8.18182 12.2733 8.18182 12.2733C8.18182 13.0264 8.79232 13.6364 9.54546 13.6364C9.54546 13.6364 10.9091 13.6364 10.9091 13.6364C11.6622 13.6364 12.2727 13.0259 12.2727 12.2727C12.2727 12.2727 12.2727 4.09091 12.2727 4.09091C12.2727 1.36364 10.2273 0 7.5 0C4.77273 0 4.09091 2.04545 4.09091 2.04545C4.09091 2.04545 4.09091 1.36364 4.09091 1.36364C4.09091 0.610514 3.48041 0 2.72727 0C2.72727 0 1.36364 0 1.36364 0C0.610499 0 0 0.610527 0 1.36364C0 1.36364 0 12.2727 0 12.2727C0 13.0259 0.610499 13.6364 1.36364 13.6364C1.36364 13.6364 2.72727 13.6364 2.72727 13.6364Z" fill="#FCFCFC" fill-rule="evenodd" transform="translate(12.273 10.909)" />
    <path d="M25.9091 0C28.1685 0 30 1.83157 30 4.09091C30 4.09091 30 25.9091 30 25.9091C30 28.1685 28.1685 30 25.9091 30C25.9091 30 4.09091 30 4.09091 30C1.83157 30 0 28.1685 0 25.9091C0 25.9091 0 4.09091 0 4.09091C0 1.83157 1.83157 0 4.09091 0C4.09091 0 25.9091 0 25.9091 0ZM25.9089 2.72729C26.662 2.72729 27.2725 3.33782 27.2725 4.09093C27.2725 4.09093 27.2725 25.9091 27.2725 25.9091C27.2725 26.6622 26.662 27.2727 25.9089 27.2727C25.9089 27.2727 4.09069 27.2727 4.09069 27.2727C3.33758 27.2727 2.72705 26.6622 2.72705 25.9091C2.72705 25.9091 2.72705 4.09093 2.72705 4.09093C2.72705 3.33782 3.33758 2.72729 4.09069 2.72729C4.09069 2.72729 25.9089 2.72729 25.9089 2.72729Z" fill="#FCFCFC" fill-rule="evenodd" />
  </g>
</svg>