<?xml version="1.0" encoding="utf-8"?>
<svg width="25" height="24.115" viewBox="0 0 25 24.115" fill="none" xmlns="http://www.w3.org/2000/svg">
  <g>
    <path d="M6.25 0C6.25 0 2.08333 0 2.08333 0C0.93274 0 0 0.899712 0 2.00956C0 2.00956 0 14.0669 0 14.0669C0 15.1768 0.93274 16.0765 2.08333 16.0765C2.08333 16.0765 14.5833 16.0765 14.5833 16.0765C15.7339 16.0765 16.6667 15.1768 16.6667 14.0669C16.6667 14.0669 16.6667 10.0478 16.6667 10.0478M8.33301 8.03825L16.6663 0M16.667 0L16.667 5.0239M16.6663 0L11.458 0" fill="none" stroke-width="3" stroke="#18628D" stroke-linecap="round" stroke-linejoin="round" transform="translate(4.166 4.019)" />
  </g>
</svg>