<?xml version="1.0" encoding="utf-8"?>
<svg width="40" height="40" viewBox="0 0 40 40" fill="none" xmlns="http://www.w3.org/2000/svg">
  <g>
    <path d="M18.0123 4.76837e-07C21.8597 -1.62125e-05 24.8747 -3.29018e-05 27.2272 0.31625C29.635 0.639984 31.5352 1.31555 33.0265 2.8069C34.5178 4.29825 35.1933 6.19828 35.5172 8.60618C35.8333 10.9586 35.8333 13.9737 35.8333 17.821C35.8333 17.821 35.8333 18.0123 35.8333 18.0123C35.8333 21.8597 35.8333 24.8747 35.5172 27.2272C35.1933 29.635 34.5178 31.5352 33.0265 33.0265C31.5352 34.5178 29.635 35.1933 27.2272 35.5172C24.8747 35.8333 21.8597 35.8333 18.0123 35.8333C18.0123 35.8333 17.821 35.8333 17.821 35.8333C13.9737 35.8333 10.9586 35.8333 8.60618 35.5172C6.19828 35.1933 4.29825 34.5178 2.8069 33.0265C1.31555 31.5352 0.639984 29.635 0.31625 27.2272C-3.29018e-05 24.8747 -1.62125e-05 21.8597 4.76837e-07 18.0123C4.76837e-07 18.0123 4.76837e-07 17.821 4.76837e-07 17.821C-1.62125e-05 13.9737 -3.29018e-05 10.9586 0.31625 8.60618C0.639984 6.19828 1.31555 4.29825 2.8069 2.8069C4.29825 1.31555 6.19828 0.639984 8.60618 0.31625C10.9586 -3.29018e-05 13.9737 -1.62125e-05 17.821 4.76837e-07C17.821 4.76837e-07 18.0123 4.76837e-07 18.0123 4.76837e-07ZM8.9393 2.79395C6.80862 3.08042 5.52408 3.62523 4.57467 4.57467C3.62523 5.52408 3.08042 6.80862 2.79395 8.9393C2.50265 11.1059 2.5 13.953 2.5 17.9167C2.5 21.8803 2.50265 24.7273 2.79395 26.894C3.08042 29.0247 3.62523 30.3092 4.57467 31.2587C5.52408 32.2082 6.80862 32.753 8.9393 33.0393C11.1059 33.3307 13.9529 33.3333 17.9167 33.3333C21.8803 33.3333 24.7273 33.3307 26.894 33.0393C29.0247 32.753 30.3092 32.2082 31.2587 31.2587C32.2082 30.3092 32.753 29.0247 33.0393 26.894C33.3307 24.7273 33.3333 21.8803 33.3333 17.9167C33.3333 13.953 33.3307 11.1059 33.0393 8.9393C32.753 6.80862 32.2082 5.52408 31.2587 4.57467C30.3092 3.62523 29.0247 3.08042 26.894 2.79395C24.7273 2.50265 21.8803 2.5 17.9167 2.5C13.9529 2.5 11.1059 2.50265 8.9393 2.79395ZM12.3186 12.3186C12.8067 11.8304 13.5982 11.8304 14.0863 12.3186C14.0863 12.3186 21.3805 19.6128 21.3805 19.6128C21.3805 19.6128 21.3805 15.5595 21.3805 15.5595C21.3805 14.8692 21.9402 14.3095 22.6305 14.3095C23.3208 14.3095 23.8805 14.8692 23.8805 15.5595C23.8805 15.5595 23.8805 22.6305 23.8805 22.6305C23.8805 23.3208 23.3208 23.8805 22.6305 23.8805C22.6305 23.8805 15.5595 23.8805 15.5595 23.8805C14.8692 23.8805 14.3095 23.3208 14.3095 22.6305C14.3095 21.9402 14.8692 21.3805 15.5595 21.3805C15.5595 21.3805 19.6128 21.3805 19.6128 21.3805C19.6128 21.3805 12.3186 14.0863 12.3186 14.0863C11.8304 13.5982 11.8304 12.8067 12.3186 12.3186Z" fill="#0A2B40" fill-rule="evenodd" transform="translate(2.083 2.083)" />
  </g>
</svg>