<?xml version="1.0" encoding="utf-8"?>
<svg width="20" height="20" viewBox="0 0 20 20" fill="none" xmlns="http://www.w3.org/2000/svg">
  <g>
    <path d="M10.7092 10.0914C10.7092 10.0914 10.2686 9.64819 10.2686 9.64819L10.2686 9.64819C10.2686 9.64819 10.7092 10.0914 10.7092 10.0914ZM11.0889 9.71387C11.0889 9.71387 11.5295 10.157 11.5295 10.157L11.5295 10.157C11.5295 10.157 11.0889 9.71387 11.0889 9.71387ZM13.1022 9.44995C13.1022 9.44995 12.8037 9.99903 12.8037 9.99903C12.8037 9.99903 13.1022 9.44995 13.1022 9.44995ZM14.694 10.3154C14.694 10.3154 14.3955 10.8645 14.3955 10.8645C14.3955 10.8645 14.694 10.3154 14.694 10.3154ZM15.1426 13.0278C15.1426 13.0278 15.5832 13.471 15.5832 13.471C15.5832 13.471 15.1426 13.0278 15.1426 13.0278ZM13.9592 14.2049C13.9592 14.2049 13.5186 13.7617 13.5186 13.7617C13.5186 13.7617 13.9592 14.2049 13.9592 14.2049ZM12.8555 14.7629C12.8555 14.7629 12.9135 15.3853 12.9135 15.3853L12.9135 15.3853C12.9135 15.3853 12.8555 14.7629 12.8555 14.7629ZM4.6377 11.2308C4.6377 11.2308 5.07838 10.7876 5.07838 10.7876C5.07838 10.7876 4.6377 11.2308 4.6377 11.2308ZM0.627898 3.74683C0.627898 3.74683 0.00390625 3.78228 0.00390625 3.78228L0.00390625 3.78228C0.00390625 3.78228 0.627898 3.74683 0.627898 3.74683ZM6.02246 4.95654C6.02246 4.95654 6.46313 5.39974 6.46313 5.39974L6.46313 5.39974C6.46313 5.39974 6.02246 4.95654 6.02246 4.95654ZM6.15332 2.74492C6.15332 2.74492 6.65365 2.37036 6.65365 2.37036C6.65365 2.37036 6.15332 2.74492 6.15332 2.74492ZM5.10287 1.34131C5.10287 1.34131 4.60254 1.71587 4.60254 1.71587L4.60254 1.71587C4.60254 1.71587 5.10287 1.34131 5.10287 1.34131ZM2.50977 1.10449C2.50977 1.10449 2.95045 1.54769 2.95045 1.54769L2.95045 1.54769C2.95045 1.54769 2.50977 1.10449 2.50977 1.10449ZM1.20143 2.40511C1.20143 2.40511 0.760742 1.96191 0.760742 1.96191L0.760742 1.96191C0.760742 1.96191 1.20143 2.40511 1.20143 2.40511ZM7.34473 8.53985C7.34473 8.53985 7.78539 8.09668 7.78539 8.09668C7.78539 8.09668 7.34473 8.53985 7.34473 8.53985ZM11.1499 10.5346C11.1499 10.5346 11.5295 10.1572 11.5295 10.1572L10.6481 9.27075L10.2686 9.64817C10.2686 9.64817 11.1499 10.5346 11.1499 10.5346ZM12.8037 9.99905C12.8037 9.99905 14.3958 10.8645 14.3958 10.8645L14.9928 9.76638L13.4007 8.90088C13.4007 8.90088 12.8037 9.99905 12.8037 9.99905ZM14.7024 12.5847C14.7024 12.5847 13.5186 13.7618 13.5186 13.7618L14.3999 14.6482L15.5837 13.4711C15.5837 13.4711 14.7024 12.5847 14.7024 12.5847ZM12.7974 14.1407C11.5891 14.2533 8.46315 14.1529 5.07863 10.7876C5.07863 10.7876 4.19727 11.674 4.19727 11.674C7.89065 15.3464 11.4059 15.5258 12.9134 15.3853C12.9134 15.3853 12.7974 14.1407 12.7974 14.1407ZM5.07897 10.7876C1.85282 7.57972 1.31842 4.88168 1.25189 3.71118C1.25189 3.71118 0.00390697 3.78211 0.00390697 3.78211C0.0876234 5.2553 0.749348 8.24531 4.19761 11.674C4.19761 11.674 5.07897 10.7876 5.07897 10.7876ZM6.22411 5.63748C6.22411 5.63748 6.46311 5.39982 6.46311 5.39982L5.58178 4.51343L5.34277 4.75108C5.34277 4.75108 6.22411 5.63748 6.22411 5.63748ZM6.65399 2.37046C6.65399 2.37046 5.6032 0.966797 5.6032 0.966797L4.60254 1.71591L5.65332 3.11959C5.65332 3.11959 6.65399 2.37046 6.65399 2.37046ZM2.06874 0.661377C2.06874 0.661377 0.760742 1.96195 0.760742 1.96195L1.64211 2.84835L2.95011 1.54778C2.95011 1.54778 2.06874 0.661377 2.06874 0.661377ZM5.78339 5.19425C5.34271 4.75105 5.34211 4.75164 5.34151 4.75224C5.34131 4.75244 5.34071 4.75305 5.3403 4.75346C5.33949 4.75428 5.33865 4.75512 5.33781 4.75597C5.33612 4.7577 5.33437 4.75949 5.33257 4.76136C5.32896 4.7651 5.32514 4.76915 5.32113 4.77352C5.31309 4.78224 5.30426 4.79222 5.29481 4.8035C5.27592 4.82604 5.25451 4.8538 5.23201 4.88701C5.1869 4.95358 5.13775 5.04161 5.09604 5.15231C5.01094 5.37818 4.96531 5.67594 5.02251 6.04465C5.13438 6.76572 5.63097 7.71819 6.90305 8.98302C6.90305 8.98302 7.78439 8.09661 7.78439 8.09661C6.59397 6.91293 6.31039 6.1926 6.25772 5.85302C6.23264 5.69141 6.25864 5.61187 6.2658 5.59303C6.27014 5.58138 6.27222 5.58019 6.26689 5.58815C6.26422 5.59204 6.2598 5.59813 6.25289 5.60634C6.24947 5.61045 6.24539 5.6151 6.24064 5.62028C6.23822 5.62287 6.23572 5.6256 6.23289 5.62846C6.23155 5.62989 6.23014 5.63135 6.22864 5.63285C6.22789 5.6336 6.22714 5.63436 6.22639 5.63512C6.22605 5.63551 6.22547 5.63609 6.22522 5.63628C6.22464 5.63687 6.22405 5.63745 5.78339 5.19425ZM6.90332 8.9831C8.17582 10.2483 9.13274 10.7408 9.85499 10.8516C10.2241 10.9082 10.5217 10.863 10.7474 10.7789C10.8581 10.7377 10.9462 10.6891 11.0129 10.6444C11.0462 10.6221 11.0741 10.6008 11.0967 10.5821C11.108 10.5728 11.118 10.564 11.1267 10.556C11.1312 10.552 11.1352 10.5483 11.139 10.5447C11.1409 10.5428 11.1427 10.5411 11.1444 10.5394C11.1452 10.5386 11.1461 10.5378 11.1469 10.5369C11.1473 10.5365 11.148 10.5359 11.1482 10.5358C11.1487 10.5352 11.1493 10.5346 10.7087 10.0913C10.268 9.64818 10.2686 9.6476 10.2692 9.64701C10.2693 9.64685 10.2699 9.64626 10.2703 9.64585C10.2711 9.6451 10.2718 9.64435 10.2726 9.6436C10.2742 9.64218 10.2756 9.64076 10.277 9.63935C10.2799 9.6366 10.2827 9.6341 10.2852 9.63168C10.2904 9.62701 10.2951 9.62293 10.2992 9.6196C10.3074 9.61276 10.3135 9.60843 10.3172 9.60585C10.325 9.60068 10.3234 9.60301 10.3111 9.6076C10.2907 9.61518 10.2089 9.64126 10.0446 9.61601C9.70015 9.56326 8.97474 9.27993 7.78465 8.09668C7.78465 8.09668 6.90332 8.9831 6.90332 8.9831ZM5.60352 0.966761C4.75409 -0.167897 3.08378 -0.347439 2.06934 0.661244C2.06934 0.661244 2.9507 1.54764 2.9507 1.54764C3.39377 1.10709 4.18067 1.15193 4.60286 1.71588C4.60286 1.71588 5.60352 0.966761 5.60352 0.966761ZM1.25144 3.71139C1.23505 3.42296 1.36733 3.12168 1.64227 2.84831C1.64227 2.84831 0.760899 1.96191 0.760899 1.96191C0.313132 2.40714 -0.0388844 3.03739 0.00345731 3.78231C0.00345731 3.78231 1.25144 3.71139 1.25144 3.71139ZM13.5182 13.7617C13.2892 13.9895 13.0437 14.1177 12.7969 14.1407C12.7969 14.1407 12.9129 15.3853 12.9129 15.3853C13.525 15.3282 14.0266 15.019 14.3995 14.6481C14.3995 14.6481 13.5182 13.7617 13.5182 13.7617ZM6.46336 5.3997C7.28378 4.58394 7.34478 3.2936 6.65361 2.37036C6.65361 2.37036 5.65295 3.11948 5.65295 3.11948C5.9892 3.56863 5.9392 4.15817 5.58203 4.51331C5.58203 4.51331 6.46336 5.3997 6.46336 5.3997ZM14.3955 10.8645C15.077 11.235 15.1832 12.1062 14.702 12.5847C14.702 12.5847 15.5833 13.4711 15.5833 13.4711C16.7003 12.3605 16.3558 10.5074 14.9925 9.76636C14.9925 9.76636 14.3955 10.8645 14.3955 10.8645ZM11.5289 10.1571C11.8489 9.83896 12.364 9.76012 12.8035 9.99904C12.8035 9.99904 13.4005 8.90087 13.4005 8.90087C12.4975 8.40996 11.3769 8.54554 10.6475 9.27071C10.6475 9.27071 11.5289 10.1571 11.5289 10.1571Z" fill="#FFFFFF" transform="translate(2.708 1.041)" />
  </g>
</svg>