<?xml version="1.0" encoding="utf-8"?>
<svg width="20" height="20" viewBox="0 0 20 20" fill="none" xmlns="http://www.w3.org/2000/svg">
  <g>
    <path d="M2.08335 8.75C2.08335 4.83798 5.25467 1.66667 9.16667 1.66667C13.0787 1.66667 16.25 4.83798 16.25 8.75C16.25 12.662 13.0787 15.8333 9.16667 15.8333C7.77317 15.8333 6.47606 15.4318 5.38165 14.7384C5.17798 14.6094 4.9284 14.5749 4.69737 14.6438C4.69737 14.6438 2.29808 15.3599 2.29808 15.3599C2.29808 15.3599 3.20144 13.2461 3.20144 13.2461C3.30822 12.9963 3.28649 12.7101 3.14323 12.4792C2.47142 11.3967 2.08335 10.1199 2.08335 8.75ZM9.16667 0C4.33419 0 0.416685 3.91751 0.416685 8.75C0.416685 10.2818 0.810968 11.7236 1.50388 12.9773C1.50388 12.9773 0.0670596 16.3392 0.0670596 16.3392C-0.0599588 16.6364 -0.0036571 16.9803 0.211518 17.2214C0.426693 17.4627 0.761935 17.5577 1.07166 17.4652C1.07166 17.4652 4.82118 16.3463 4.82118 16.3463C6.10204 17.0804 7.58642 17.5 9.16667 17.5C13.9992 17.5 17.9167 13.5825 17.9167 8.75C17.9167 3.91751 13.9992 0 9.16667 0ZM9.98192 11.3401C9.469 11.0479 8.90192 10.6401 8.33309 10.0712C7.74175 9.47992 7.30335 8.86942 6.9801 8.30942C6.9801 8.30942 7.67609 7.71867 7.67609 7.71867C7.97475 7.46517 8.0565 7.03778 7.8725 6.6919C7.8725 6.6919 6.9857 5.02523 6.9857 5.02523C6.86629 4.80081 6.65097 4.64317 6.40096 4.59712C6.15094 4.55107 5.89359 4.62167 5.70206 4.78883C5.70206 4.78883 5.43914 5.01829 5.43914 5.01829C4.80686 5.57012 4.43292 6.47692 4.74284 7.39508C5.06415 8.34692 5.74986 9.845 7.1546 11.2498C8.66592 12.7611 10.2011 13.3563 11.0988 13.5874C11.8222 13.7736 12.5067 13.524 12.989 13.131C12.989 13.131 13.4819 12.7293 13.4819 12.7293C13.6928 12.5576 13.8065 12.2937 13.7867 12.0224C13.7668 11.7512 13.6158 11.5067 13.3821 11.3674C13.3821 11.3674 11.9835 10.5341 11.9835 10.5341C11.701 10.3658 11.346 10.3793 11.0771 10.5687C11.0771 10.5687 9.98192 11.3401 9.98192 11.3401Z" fill="#FFFFFF" fill-rule="evenodd" transform="translate(0.833 1.25)" />
  </g>
</svg>