<?xml version="1.0" encoding="utf-8"?>
<svg width="40" height="40" viewBox="0 0 40 40" fill="none" xmlns="http://www.w3.org/2000/svg">
  <g>
    <g transform="translate(4 8.8)">
      <path d="M25.0688 22.4045C28.7558 22.5387 31.856 19.664 32 15.9773C32 15.9773 32 6.43172 32 6.43172C31.856 2.74511 28.7558 -0.129709 25.0688 0.00451508C25.0688 0.00451508 6.9312 0.00451508 6.9312 0.00451508C3.24421 -0.129709 0.143968 2.74511 0 6.43172C0 6.43172 0 15.9773 0 15.9773C0.143968 19.664 3.24421 22.5387 6.9312 22.4045C6.9312 22.4045 25.0688 22.4045 25.0688 22.4045Z" fill="none" stroke-width="3" stroke="#FCFCFC" stroke-linecap="round" stroke-linejoin="round" />
      <path d="M7.4704 3.71699C7.79808 3.90835 7.99952 4.25923 7.99952 4.63859C7.99952 5.01811 7.79808 5.36899 7.4704 5.56019C7.4704 5.56019 2.4128 9.32019 2.4128 9.32019C1.4528 9.97139 0 9.41619 0 8.39859C0 8.39859 0 1.19865 0 1.19865C0 0.185851 1.4544 -0.37095 2.4128 0.280251C2.4128 0.280251 7.4704 3.71699 7.4704 3.71699Z" fill="none" stroke-width="3" stroke="#FCFCFC" stroke-linecap="round" stroke-linejoin="round" transform="translate(12.8 6.404)" />
    </g>
  </g>
</svg>