<?xml version="1.0" encoding="utf-8"?>
<svg width="730" height="216" viewBox="0 0 730 216" fill="none" xmlns="http://www.w3.org/2000/svg">
  <g>
    <path d="M30.384 159.84Q23.904 159.84 18.36 157.536Q12.816 155.232 9.504 150.552Q6.192 145.872 6.192 138.96Q6.192 129.168 12.888 123.192Q19.584 117.216 33.552 117.216L55.44 117.216L55.44 114.192Q55.44 109.296 53.928 106.416Q52.416 103.536 48.456 102.24Q44.496 100.944 36.864 100.944Q24.768 100.944 14.256 104.544L14.256 92.88Q18.864 91.008 25.488 89.856Q32.112 88.704 39.744 88.704Q54.72 88.704 62.568 94.752Q70.416 100.8 70.416 114.48L70.416 158.4L57.024 158.4L56.016 151.488Q51.84 155.52 45.72 157.68Q39.6 159.84 30.384 159.84ZM34.56 148.608Q41.616 148.608 46.872 146.232Q52.128 143.856 55.44 139.824L55.44 127.872L33.84 127.872Q26.928 127.872 23.832 130.536Q20.736 133.2 20.736 138.672Q20.736 144 24.336 146.304Q27.936 148.608 34.56 148.608ZM122.4 159.84Q104.544 159.84 94.752 151.056Q84.96 142.272 84.96 124.128Q84.96 107.712 93.312 98.208Q101.664 88.704 118.656 88.704Q134.208 88.704 142.056 96.84Q149.904 104.976 149.904 117.792L149.904 130.464L99.936 130.464Q101.088 140.4 107.136 144.144Q113.184 147.888 125.568 147.888Q130.752 147.888 136.224 146.88Q141.696 145.872 145.728 144.288L145.728 155.808Q141.12 157.824 135.144 158.832Q129.168 159.84 122.4 159.84ZM99.936 120.24L136.08 120.24L136.08 115.488Q136.08 108.432 132.192 104.472Q128.304 100.512 119.088 100.512Q108.144 100.512 104.04 105.264Q99.936 110.016 99.936 120.24ZM165.168 158.4L165.168 90.144L179.568 90.144L180.432 98.064Q185.328 94.896 192.096 92.304Q198.864 89.712 205.488 88.704L205.488 100.656Q201.456 101.376 196.776 102.744Q192.096 104.112 187.92 105.768Q183.744 107.424 180.864 109.152L180.864 158.4L165.168 158.4ZM233.856 159.84Q227.376 159.84 221.832 157.536Q216.288 155.232 212.976 150.552Q209.664 145.872 209.664 138.96Q209.664 129.168 216.36 123.192Q223.056 117.216 237.024 117.216L258.912 117.216L258.912 114.192Q258.912 109.296 257.4 106.416Q255.888 103.536 251.928 102.24Q247.968 100.944 240.336 100.944Q228.24 100.944 217.728 104.544L217.728 92.88Q222.336 91.008 228.96 89.856Q235.584 88.704 243.216 88.704Q258.192 88.704 266.04 94.752Q273.888 100.8 273.888 114.48L273.888 158.4L260.496 158.4L259.488 151.488Q255.312 155.52 249.192 157.68Q243.072 159.84 233.856 159.84ZM238.032 148.608Q245.088 148.608 250.344 146.232Q255.6 143.856 258.912 139.824L258.912 127.872L237.312 127.872Q230.4 127.872 227.304 130.536Q224.208 133.2 224.208 138.672Q224.208 144 227.808 146.304Q231.408 148.608 238.032 148.608ZM314.064 159.84Q307.008 159.84 300.6 158.832Q294.192 157.824 290.016 156.384L290.016 143.136Q294.912 145.008 300.816 146.016Q306.72 147.024 312.048 147.024Q320.112 147.024 323.568 145.584Q327.024 144.144 327.024 139.968Q327.024 136.944 324.936 135.216Q322.848 133.488 318.744 132.048Q314.64 130.608 308.304 128.592Q302.256 126.576 297.792 124.2Q293.328 121.824 290.88 118.08Q288.432 114.336 288.432 108.288Q288.432 98.928 295.2 93.816Q301.968 88.704 316.944 88.704Q322.848 88.704 328.176 89.568Q333.504 90.432 337.248 91.728L337.248 104.832Q333.216 103.248 328.392 102.384Q323.568 101.52 319.392 101.52Q311.904 101.52 308.088 102.816Q304.272 104.112 304.272 108Q304.272 112.032 308.232 113.688Q312.192 115.344 320.976 118.224Q329.04 120.672 333.792 123.408Q338.544 126.144 340.632 129.96Q342.72 133.776 342.72 139.824Q342.72 149.904 335.376 154.872Q328.032 159.84 314.064 159.84ZM390.528 159.84Q372.672 159.84 362.88 151.056Q353.088 142.272 353.088 124.128Q353.088 107.712 361.44 98.208Q369.792 88.704 386.784 88.704Q402.336 88.704 410.184 96.84Q418.032 104.976 418.032 117.792L418.032 130.464L368.064 130.464Q369.216 140.4 375.264 144.144Q381.312 147.888 393.696 147.888Q398.88 147.888 404.352 146.88Q409.824 145.872 413.856 144.288L413.856 155.808Q409.248 157.824 403.272 158.832Q397.296 159.84 390.528 159.84ZM368.064 120.24L404.208 120.24L404.208 115.488Q404.208 108.432 400.32 104.472Q396.432 100.512 387.216 100.512Q376.272 100.512 372.168 105.264Q368.064 110.016 368.064 120.24ZM433.296 158.4L433.296 90.144L447.696 90.144L448.416 97.344Q453.024 93.744 459.432 91.224Q465.84 88.704 473.616 88.704Q486.864 88.704 492.912 94.896Q498.96 101.088 498.96 114.192L498.96 158.4L483.408 158.4L483.408 114.912Q483.408 106.992 480.168 103.824Q476.928 100.656 468 100.656Q462.672 100.656 457.56 102.816Q452.448 104.976 448.992 108.432L448.992 158.4L433.296 158.4ZM539.28 159.84Q532.224 159.84 525.816 158.832Q519.408 157.824 515.232 156.384L515.232 143.136Q520.128 145.008 526.032 146.016Q531.936 147.024 537.264 147.024Q545.328 147.024 548.784 145.584Q552.24 144.144 552.24 139.968Q552.24 136.944 550.152 135.216Q548.064 133.488 543.96 132.048Q539.856 130.608 533.52 128.592Q527.472 126.576 523.008 124.2Q518.544 121.824 516.096 118.08Q513.648 114.336 513.648 108.288Q513.648 98.928 520.416 93.816Q527.184 88.704 542.16 88.704Q548.064 88.704 553.392 89.568Q558.72 90.432 562.464 91.728L562.464 104.832Q558.432 103.248 553.608 102.384Q548.784 101.52 544.608 101.52Q537.12 101.52 533.304 102.816Q529.488 104.112 529.488 108Q529.488 112.032 533.448 113.688Q537.408 115.344 546.192 118.224Q554.256 120.672 559.008 123.408Q563.76 126.144 565.848 129.96Q567.936 133.776 567.936 139.824Q567.936 149.904 560.592 154.872Q553.248 159.84 539.28 159.84ZM615.744 159.84Q597.888 159.84 588.096 151.056Q578.304 142.272 578.304 124.128Q578.304 107.712 586.656 98.208Q595.008 88.704 612 88.704Q627.552 88.704 635.4 96.84Q643.248 104.976 643.248 117.792L643.248 130.464L593.28 130.464Q594.432 140.4 600.48 144.144Q606.528 147.888 618.912 147.888Q624.096 147.888 629.568 146.88Q635.04 145.872 639.072 144.288L639.072 155.808Q634.464 157.824 628.488 158.832Q622.512 159.84 615.744 159.84ZM593.28 120.24L629.424 120.24L629.424 115.488Q629.424 108.432 625.536 104.472Q621.648 100.512 612.432 100.512Q601.488 100.512 597.384 105.264Q593.28 110.016 593.28 120.24Z" fill="#000000" />
    <g transform="translate(624 2)">
      <path d="M0 0C43.9066 0 79.5 35.5934 79.5 79.5" fill="none" stroke-width="10" stroke="#3B9DDC" transform="translate(13.25 13.25)" />
      <path d="M0 0C29.2711 0 53 23.7289 53 53" fill="none" stroke-width="10" stroke="#3B9DDC" transform="translate(13.25 39.75)" />
      <path d="M0 0C14.6355 0 26.5 11.8645 26.5 26.5" fill="none" stroke-width="10" stroke="#3B9DDC" transform="translate(13.25 66.25)" />
    </g>
  </g>
</svg>